<svg width="72" height="116" viewBox="0 0 72 116" fill="none" xmlns="http://www.w3.org/2000/svg">
<g clip-path="url(#clip0_6_282)">
<path d="M-43.3735 72.5359L-27.9464 42.4058L-21.4502 45.7491L-15.5356 34.2055L-24.0625 29.8136L-11.3954 5.07446L14.7864 11.7514L36.69 23.0477L15.3483 64.7214L21.0262 67.6593L5.59908 97.7894L-43.3735 72.5359Z" fill="#003B54"/>
<path d="M-29.0406 67.9165L-23.3429 56.7883L-16.8467 60.1416L-1.20266 29.596L-9.7295 25.2041L-5.80617 17.538L10.9813 21.8211L22.3472 27.677L1.00544 69.3508L6.68343 72.2787L0.985729 83.4069L-29.0504 67.9165H-29.0406Z" fill="#010101"/>
<path d="M-8.0636 90.7465L7.36356 60.6065L13.8597 63.9598L19.7743 52.4162L11.2475 48.0242L23.9145 23.2851L50.0963 29.962L71.9999 41.2583L50.6582 82.9321L56.3362 85.86L40.909 116L-8.0636 90.7465Z" fill="#003B54"/>
<path d="M6.26938 86.1271L11.9671 74.9989L18.4632 78.3522L34.1073 47.8066L25.5804 43.4147L29.5038 35.7487L46.2913 40.0318L57.6571 45.8877L36.3154 87.5614L41.9934 90.4893L36.2957 101.618L6.25952 86.1271H6.26938Z" fill="#010101"/>
<path d="M-45 67.4614L-29.563 37.3313L-23.0767 40.6747L-17.1621 29.1311L-25.6889 24.7391L-13.012 0L13.1599 6.6769L35.0635 17.9732L13.7218 59.647L19.4096 62.5848L3.97262 92.7149L-45 67.4614Z" fill="white"/>
<path d="M-9.69006 85.672L5.74696 55.532L12.2333 58.8853L18.1478 47.3417L9.621 42.9498L22.2979 18.2106L48.4698 24.8875L70.3735 36.1839L49.0317 77.8576L54.7196 80.7855L39.2826 110.926L-9.69006 85.672Z" fill="white"/>
<path d="M-30.667 62.842L-24.9693 51.7138L-18.4732 55.0671L-2.82913 24.5215L-11.356 20.1296L-7.43263 12.4636L9.35488 16.7467L20.7207 22.6026L-0.621019 64.2763L5.05696 67.2043L-0.640736 78.3324L-30.6769 62.842H-30.667Z" fill="#FBB042"/>
<path d="M4.64292 81.0526L10.3406 69.9245L16.8368 73.2778L32.4808 42.7322L23.954 38.3403L27.8773 30.6742L44.6648 34.9573L56.0306 40.8132L34.6889 82.4869L40.3669 85.4149L34.6692 96.543L4.63306 81.0526H4.64292Z" fill="#FBB042"/>
</g>
<defs>
<clipPath id="clip0_6_282">
<rect width="117" height="116" fill="white" transform="translate(-45)"/>
</clipPath>
</defs>
</svg>
