<svg width="69" height="88" viewBox="0 0 69 88" fill="none" xmlns="http://www.w3.org/2000/svg">
<g clip-path="url(#clip0_6_262)">
<path d="M14.55 84.69C10.45 83.19 6.48 81.2 2.73 78.77C-0.939996 76.4 -4.16 73.93 -6.85 71.42L-9.62 68.84L-2.77 50.17L-3.43999 49.93L-0.109995 42.93L0.740005 40.62L0.910005 40.79L17.84 5.14999L68.68 23.8L59.32 49.3L55.04 47.73C55.38 48.38 55.69 49.05 55.97 49.75C58.27 55.53 58.11 62.05 55.51 69.13C53.57 74.42 50.58 78.72 46.62 81.9C42.57 85.16 37.65 87.04 31.99 87.49C26.66 87.92 20.79 86.97 14.54 84.68L14.55 84.69ZM24.66 56.43L23.68 57.52C24.05 57.54 24.23 57.51 24.27 57.49C24.26 57.48 24.55 57.17 24.89 56.26C24.9 56.22 24.92 56.18 24.93 56.14C24.85 56.22 24.75 56.31 24.65 56.42L24.66 56.43Z" fill="#003B54"/>
<path d="M50.69 51.86C52.46 56.32 52.29 61.43 50.18 67.18C48.59 71.51 46.22 74.94 43.07 77.48C39.91 80.02 36.07 81.47 31.55 81.83C27.03 82.19 22.02 81.37 16.52 79.35C12.8 77.99 9.24004 76.2 5.83004 74C2.42004 71.8 -0.509961 69.55 -2.95996 67.27L3.01004 51C8.49004 56.53 13.93 60.29 19.32 62.27C22.12 63.3 24.42 63.49 26.21 62.85C28.01 62.21 29.35 60.67 30.25 58.22C30.9 56.44 31.01 54.89 30.57 53.57C30.13 52.25 29.02 51.27 27.24 50.61C25.87 50.11 24.63 50.04 23.54 50.42C22.45 50.8 21.41 51.53 20.44 52.62L4.40004 46.74L20.76 12.29L61.38 27.2L55.94 42.01L30.59 32.71L27.02 40.32C30.84 39.82 35 40.39 39.48 42.03C45.18 44.12 48.92 47.4 50.69 51.86Z" fill="#010101"/>
<path d="M12.16 79.54C8.05999 78.04 4.08999 76.05 0.339991 73.62C-3.33001 71.25 -6.55001 68.78 -9.24001 66.27L-12.01 63.69L-5.16001 45.02L-5.83001 44.78L-2.50001 37.78L-1.65001 35.47L-1.48001 35.64L15.46 0L66.3 18.65L56.94 44.15L52.66 42.58C53 43.23 53.31 43.9 53.59 44.6C55.89 50.38 55.73 56.9 53.13 63.98C51.19 69.27 48.2 73.57 44.24 76.75C40.19 80.01 35.27 81.89 29.61 82.34C24.28 82.77 18.41 81.82 12.16 79.53V79.54ZM22.27 51.28L21.29 52.37C21.66 52.39 21.84 52.36 21.88 52.34C21.87 52.33 22.16 52.02 22.5 51.11C22.51 51.07 22.53 51.03 22.54 50.99C22.46 51.07 22.36 51.16 22.26 51.27L22.27 51.28Z" fill="white"/>
<path d="M48.3 46.71C50.07 51.17 49.9 56.28 47.79 62.03C46.2 66.36 43.83 69.79 40.68 72.33C37.52 74.87 33.68 76.32 29.16 76.68C24.64 77.04 19.63 76.22 14.13 74.2C10.41 72.84 6.85002 71.05 3.44002 68.85C0.0300236 66.65 -2.89998 64.4 -5.34998 62.12L0.620024 45.85C6.10002 51.38 11.54 55.14 16.93 57.12C19.73 58.15 22.03 58.34 23.82 57.7C25.62 57.06 26.96 55.52 27.86 53.07C28.51 51.29 28.62 49.74 28.18 48.42C27.74 47.1 26.63 46.12 24.85 45.46C23.48 44.96 22.24 44.89 21.15 45.27C20.06 45.65 19.02 46.38 18.05 47.47L2.01002 41.59L18.37 7.13L58.99 22.04L53.55 36.85L28.2 27.55L24.63 35.16C28.45 34.66 32.61 35.23 37.09 36.87C42.79 38.96 46.53 42.24 48.3 46.7V46.71Z" fill="#C84599"/>
</g>
<defs>
<clipPath id="clip0_6_262">
<rect width="80.69" height="87.61" fill="white" transform="translate(-12)"/>
</clipPath>
</defs>
</svg>
