<svg width="86" height="84" viewBox="0 0 86 84" fill="none" xmlns="http://www.w3.org/2000/svg">
<g clip-path="url(#clip0_6_214)">
<path d="M42.03 83.12L35.41 63.71L16 70.34L5.40002 39.28L24.81 32.66L18.19 13.25L49.24 2.65L55.86 22.06L75.16 15.48L85.75 46.53L66.46 53.12L73.08 72.52L42.03 83.12Z" fill="#003B54"/>
<path d="M45.7901 75.47L39.1701 56.06L19.7601 62.68L13.0601 43.04L32.4701 36.42L25.8501 17.01L45.4901 10.31L52.1101 29.72L71.4001 23.14L78.1001 42.78L58.8101 49.36L65.4301 68.77L45.7901 75.47Z" fill="#669A31"/>
<path d="M36.63 80.47L30 61.06L10.6 67.68L0 36.63L19.41 30.01L12.79 10.6L43.84 0L50.46 19.41L69.76 12.83L80.35 43.88L61.06 50.46L67.68 69.87L36.63 80.47Z" fill="white"/>
<path d="M40.39 72.82L33.77 53.41L14.36 60.03L7.66003 40.39L27.07 33.77L20.45 14.36L40.09 7.66L46.71 27.07L66 20.49L72.7 40.13L53.41 46.71L60.03 66.12L40.39 72.82Z" fill="#86C440"/>
</g>
<defs>
<clipPath id="clip0_6_214">
<rect width="85.75" height="83.12" fill="white"/>
</clipPath>
</defs>
</svg>
