<svg width="108" height="94" viewBox="0 0 108 94" fill="none" xmlns="http://www.w3.org/2000/svg">
<g clip-path="url(#clip0_6_193)">
<path d="M30.86 93.12L19.58 66.54L25.33 64.1L21.01 53.91L13.47 57.11L4.20996 35.29L22.92 21.74L42.32 13.51L57.91 50.28L62.94 48.15L74.21 74.74L30.86 93.12Z" fill="#003B54"/>
<path d="M85.9499 70.75C82.4999 72.21 79.0799 73.3 75.7899 73.99C72.1699 74.75 69.0599 75 66.2999 74.77L60.8299 74.31L51.2399 51.7C48.3399 49.48 45.4099 46.11 43.2299 40.98C39.0499 31.12 40.9899 23.65 43.3599 19.12C46.4799 13.14 52.1199 8.38 60.1199 4.99C69.6499 0.950001 78.2799 0.650002 85.7699 4.09C92.9599 7.4 98.7599 14.13 102.99 24.12C107.61 35.01 108.29 44.62 105.01 52.67C101.74 60.7 95.3299 66.79 85.9599 70.77L85.9499 70.75Z" fill="#003B54"/>
<path d="M35.6899 81.19L31.5199 71.37L37.2699 68.93L25.8399 41.98L18.2899 45.18L15.4199 38.41L27.4199 29.72L37.4799 25.45L53.0699 62.22L58.0999 60.09L62.2699 69.91L35.6799 81.19H35.6899Z" fill="#010101"/>
<path d="M81.96 12.35C87.05 14.69 91.26 19.79 94.6 27.66C98.26 36.28 98.91 43.47 96.57 49.22C94.23 54.97 89.5 59.35 82.4 62.37C79.49 63.61 76.66 64.51 73.94 65.07C71.21 65.64 68.92 65.85 67.07 65.69L61.94 53.59C63.74 53.63 65.71 53.44 67.85 53.03C69.98 52.62 72.15 51.95 74.35 51.02C80.06 48.6 82.02 45.27 80.22 41.04L79.94 40.38C77.81 42.46 75.26 44.13 72.31 45.38C67.68 47.34 63.55 47.62 59.91 46.22C56.28 44.82 53.51 41.88 51.62 37.41C49.37 32.1 49.31 27.4 51.44 23.32C53.57 19.24 57.65 15.92 63.68 13.36C70.79 10.35 76.89 10.01 81.98 12.35H81.96ZM68.92 34.17C69.99 34.75 71.25 34.74 72.68 34.13C74.04 33.55 75.22 32.75 76.24 31.7L74.21 26.91C73.53 25.31 72.7 24.29 71.71 23.84C70.72 23.39 69.54 23.45 68.19 24.03C66.83 24.61 65.99 25.46 65.67 26.58C65.35 27.71 65.56 29.15 66.3 30.91C66.98 32.51 67.85 33.6 68.92 34.18V34.17Z" fill="#010101"/>
<path d="M26.65 91.42L15.37 64.83L21.12 62.39L16.8 52.21L9.26 55.41L0 33.58L18.71 20.03L38.1 11.81L53.7 48.58L58.73 46.45L70 73.03L26.65 91.42Z" fill="white"/>
<path d="M81.74 69.05C78.29 70.51 74.87 71.6 71.58 72.29C67.96 73.05 64.85 73.3 62.09 73.07L56.62 72.61L47.03 50C44.13 47.78 41.2 44.41 39.02 39.28C34.84 29.42 36.78 21.95 39.15 17.42C42.27 11.44 47.91 6.68 55.91 3.29C65.44 -0.749999 74.07 -1.05 81.56 2.39C88.75 5.7 94.55 12.43 98.78 22.42C103.4 33.31 104.08 42.92 100.8 50.97C97.53 59 91.12 65.09 81.75 69.07L81.74 69.05Z" fill="white"/>
<path d="M31.47 79.48L27.2999 69.66L33.0499 67.22L21.62 40.27L14.07 43.47L11.2 36.7L23.2 28.01L33.2599 23.74L48.8499 60.51L53.88 58.38L58.0499 68.2L31.4599 79.48H31.47Z" fill="#F36C3F"/>
<path d="M77.74 10.65C82.83 12.99 87.04 18.09 90.38 25.96C94.04 34.58 94.69 41.77 92.35 47.52C90.01 53.27 85.28 57.65 78.18 60.67C75.27 61.91 72.44 62.81 69.72 63.37C66.99 63.94 64.7 64.15 62.85 63.99L57.72 51.89C59.52 51.93 61.49 51.74 63.63 51.33C65.76 50.92 67.93 50.25 70.13 49.32C75.84 46.9 77.8 43.57 76 39.34L75.72 38.68C73.59 40.76 71.04 42.43 68.09 43.68C63.46 45.64 59.33 45.92 55.69 44.52C52.06 43.12 49.29 40.18 47.4 35.71C45.15 30.4 45.09 25.7 47.22 21.62C49.35 17.54 53.43 14.22 59.46 11.66C66.57 8.65 72.67 8.31 77.76 10.65H77.74ZM64.7 32.46C65.77 33.04 67.03 33.03 68.46 32.42C69.82 31.84 71 31.04 72.02 29.99L69.99 25.2C69.31 23.6 68.48 22.58 67.49 22.13C66.5 21.68 65.32 21.74 63.97 22.32C62.62 22.9 61.77 23.75 61.45 24.87C61.13 26 61.34 27.44 62.08 29.2C62.76 30.8 63.63 31.89 64.7 32.47V32.46Z" fill="#F36C3F"/>
</g>
<defs>
<clipPath id="clip0_6_193">
<rect width="107.04" height="93.12" fill="white"/>
</clipPath>
</defs>
</svg>
