<svg width="284" height="147" viewBox="0 0 284 147" fill="none" xmlns="http://www.w3.org/2000/svg">
<g clip-path="url(#clip0_6_162)">
<path d="M242.604 56.2582V45.8104H273.916V4.72027H242.604V4.5129H88.4163V4.57215C87.6577 4.53265 86.8891 4.5129 86.1103 4.5129H44.9161H44.8959H4.78394V75.238H4.84462V105.633H18.3872V146.99H284.01V56.2582H242.614H242.604Z" fill="#003B54"/>
<path d="M237.82 51.7453V41.2975H269.133V0.207376H237.82V0H83.6425V0.0592503C82.8839 0.0197501 82.1152 0 81.3365 0H40.1423H40.1221H0V70.7251H0.0606838V101.121H13.6033V142.477H279.226V51.7453H237.83H237.82Z" fill="white"/>
<path d="M16.2329 46.9361H18.9536V23.789H16.2329V15.3557H40.112C44.7846 15.3557 48.3549 16.3037 50.8227 18.2096C53.2905 20.1155 54.5244 23.1866 54.5244 27.4428C54.5244 31.6989 53.2905 34.7701 50.8227 36.6759C48.3549 38.5818 44.7846 39.5298 40.112 39.5298H34.1852V46.9361H39.404V55.3694H16.2329V46.9361ZM36.036 32.2223C38.1397 32.2223 39.1916 31.1262 39.1916 28.9339V27.0873C39.1916 25.9516 38.9286 25.1221 38.4027 24.5889C37.8768 24.0556 37.0879 23.789 36.036 23.789H34.1852V32.2223H36.036Z" fill="#F36C3F"/>
<path d="M56.3752 46.9361H59.0959V23.789H56.3752V15.3557H81.3365C86.0091 15.3557 89.5794 16.2642 92.0472 18.0812C94.515 19.8982 95.7489 22.8509 95.7489 26.9293C95.7489 29.2302 95.2634 31.215 94.2824 32.8938C93.3013 34.5726 91.9056 35.7378 90.0952 36.3896L90.1457 36.9031C93.6249 37.4166 95.3645 39.441 95.3645 42.9762V46.9361H97.9234V55.3694H80.6791V43.2823C80.6791 41.9492 80.4667 40.9321 80.052 40.2507C79.6373 39.5693 78.9799 39.1052 78.0899 38.8583C77.1999 38.6213 75.9457 38.5028 74.3073 38.5028V46.9361H77.8977V55.3694H56.3651V46.9361H56.3752ZM77.2504 32.2223C78.3023 32.2223 79.0912 31.9557 79.6171 31.4224C80.143 30.8892 80.406 30.0597 80.406 28.924V27.0774C80.406 25.9418 80.143 25.1123 79.6171 24.579C79.0912 24.0457 78.3023 23.7791 77.2504 23.7791H74.3174V32.2124H77.2504V32.2223Z" fill="#F36C3F"/>
<path d="M99.8754 55.3694V46.9361H102.596V23.789H99.8754V15.3557H120.538V23.789H117.818V46.9361H120.538V55.3694H99.8754Z" fill="#F36C3F"/>
<path d="M182.699 23.789H179.978V46.9361H182.699V55.3694H162.137V46.9361H164.746V28.9339L155.502 55.3694H147.451L137.934 29.1906V46.9361H140.544V55.3694H122.703V46.9361H125.423V23.789H122.703V15.3557H147.613L153.267 31.4027L158.708 15.3557H182.689V23.789H182.699Z" fill="#F36C3F"/>
<path d="M184.873 55.3694V46.9361H187.594V23.789H184.873V15.3557H221.587V30.8892H209.41V23.789H202.825V31.9162H207.609V37.7819H202.825V46.9361H209.41V38.8089H221.587V55.3694H184.873Z" fill="#F36C3F"/>
<path d="M77.6348 85.7648H63.6067V79.7509H58.3879V114.472H64.1023V127.122H29.8362V114.472H35.5506V79.7509H30.3318V85.7648H16.3037V67.0911H77.655V85.7648H77.6348Z" fill="#28A8E0"/>
<path d="M80.4161 127.122V114.472H84.4921V79.7509H80.4161V67.101H111.415V79.7509H107.339V114.472H111.415V127.122H80.4161Z" fill="#28A8E0"/>
<path d="M204.656 79.7509H200.58V114.472H204.656V127.122H173.819V114.472H177.733V87.4732L163.866 127.131H151.79L137.509 87.8583V114.472H141.424V127.122H114.662V114.472H118.738V79.7509H114.662V67.101H152.023L160.509 91.1763L168.671 67.101H204.646V79.7509H204.656Z" fill="#28A8E0"/>
<path d="M207.923 127.122V114.472H211.999V79.7509H207.923V67.101H262.983V90.3962H244.707V79.7509H234.836V91.9367H242.017V100.735H234.836V114.472H244.707V102.286H262.983V127.131H207.923V127.122Z" fill="#28A8E0"/>
<path d="M236.869 18.7823H234.442V17.7455H233.541V23.7495H234.533V25.9319H228.616V23.7495H229.607V17.7455H228.707V18.7823H226.28V15.5532H236.879V18.7823H236.869Z" fill="#F36C3F"/>
<path d="M252.9 17.7455H252.192V23.7495H252.9V25.9319H247.57V23.7495H248.247V19.0786L245.85 25.9319H243.767L241.299 19.1477V23.7495H241.977V25.9319H237.354V23.7495H238.062V17.7455H237.354V15.5631H243.807L245.274 19.7205L246.68 15.5631H252.9V17.7455Z" fill="#F36C3F"/>
</g>
<defs>
<clipPath id="clip0_6_162">
<rect width="284" height="147" fill="white"/>
</clipPath>
</defs>
</svg>
