<svg width="69" height="104" viewBox="0 0 69 104" fill="none" xmlns="http://www.w3.org/2000/svg">
<g clip-path="url(#clip0_7_629)">
<path d="M45.2299 103.85L42.9799 97.75C40.8199 91.92 39.6499 85.02 39.4999 77.25C39.3699 70.47 39.7899 63.59 40.7699 56.76L19.6199 64.58L5.88989 27.45L72.8199 2.71001L80.6599 23.91L80.1999 25.83C78.8399 31.46 77.7799 37.96 77.0599 45.14C76.3399 52.28 76.1799 59.51 76.5699 66.6C76.9499 73.39 78.0499 79.28 79.8299 84.11L82.0799 90.21L45.2199 103.83L45.2299 103.85Z" fill="#003B54"/>
<path d="M45.99 77.12C45.85 70.04 46.35 62.94 47.48 55.82C48.61 48.7 50.05 42.31 51.78 36.65L38.79 41.45L41.75 49.47L23.45 56.23L14.24 31.3L68.97 11.07L73.87 24.32C72.43 30.27 71.34 36.99 70.58 44.5C69.82 52.01 69.65 59.51 70.07 66.98C70.49 74.45 71.71 80.92 73.73 86.38L49.07 95.5C47.16 90.33 46.13 84.2 45.99 77.12Z" fill="#010101"/>
<path d="M39.33 101.13L37.08 95.03C34.92 89.2 33.75 82.3 33.6 74.53C33.47 67.75 33.89 60.87 34.87 54.04L13.72 61.86L0 24.74L66.93 0L74.77 21.2L74.31 23.12C72.95 28.75 71.89 35.25 71.17 42.43C70.45 49.57 70.29 56.8 70.68 63.89C71.06 70.68 72.16 76.57 73.94 81.4L76.19 87.5L39.33 101.12V101.13Z" fill="white"/>
<path d="M40.1001 74.4C39.9601 67.32 40.4601 60.22 41.5901 53.1C42.7201 45.98 44.1601 39.59 45.8901 33.93L32.9001 38.73L35.8601 46.75L17.5601 53.51L8.3501 28.58L63.0801 8.35001L67.9801 21.6C66.5401 27.55 65.4501 34.27 64.6901 41.78C63.9301 49.29 63.7601 56.79 64.1801 64.26C64.6001 71.73 65.8201 78.2 67.8401 83.66L43.1801 92.78C41.2701 87.61 40.2401 81.48 40.1001 74.4Z" fill="#FBB042"/>
</g>
<defs>
<clipPath id="clip0_7_629">
<rect width="82.09" height="103.85" fill="white"/>
</clipPath>
</defs>
</svg>
