<svg width="82" height="89" viewBox="0 0 82 89" fill="none" xmlns="http://www.w3.org/2000/svg">
<g clip-path="url(#clip0_6_322)">
<path d="M6.24475 87.9031V53.1041H13.803V39.7702H3.89038V11.2004L31.1324 4.97125H56.6262V53.1041H63.2347V87.9031H6.24475Z" fill="#003B54"/>
<path d="M78.5027 89C73.8646 89 69.1862 88.4767 64.5785 87.4301C60.1426 86.4338 56.0806 85.1659 52.5035 83.6664L45.7537 80.8386V40.1124L50.4725 42.1552L42.9951 15.2661L50.8666 11.1502C54.7164 9.13749 59.0917 7.42673 63.8712 6.04805C68.9336 4.58887 74.1274 3.85425 79.2807 3.85425C89.0114 3.85425 96.9132 6.16881 102.764 10.7376C109.342 15.8699 112.808 23.2966 112.808 32.2328C112.808 37.1236 111.716 41.4609 109.574 45.1742C110.231 46.1504 110.827 47.1668 111.373 48.2435C113.111 51.7053 113.99 55.5193 113.99 59.5849C113.99 68.6922 110.413 76.3303 103.653 81.694C97.5498 86.5244 89.0923 88.9799 78.4925 88.9799L78.5027 89Z" fill="#003B54"/>
<path d="M17.2688 76.9341V64.0732H24.827V28.8012H14.9043V19.9455L32.3751 15.9504H45.602V64.0832H52.2104V76.9442H17.2688V76.9341Z" fill="#010101"/>
<path d="M97.8227 48.3542C99.3182 49.6323 100.551 51.2424 101.521 53.1746C102.491 55.1067 102.976 57.2502 102.976 59.605C102.976 65.3512 100.915 69.8595 96.792 73.1301C92.6694 76.4007 86.5763 78.031 78.4926 78.031C74.663 78.031 70.8333 77.5982 67.0037 76.7328C63.1741 75.8674 59.7587 74.8107 56.7677 73.5629V56.8678C60.0214 58.2767 63.3964 59.4339 66.8824 60.3195C70.3685 61.2051 73.6929 61.6479 76.8355 61.6479C79.0383 61.6479 80.655 61.3057 81.6756 60.6315C82.6961 59.9472 83.2115 58.8302 83.2115 57.2603C83.2115 54.2312 81.3724 52.7117 77.7045 52.7117H72.0358V39.8507H76.4414C79.9073 39.8507 81.6351 38.3916 81.6351 35.4631C81.6351 32.5347 79.9073 31.2265 76.4414 31.2265C73.9253 31.2265 71.2981 31.8101 68.5699 32.9875C65.8417 34.165 63.1943 35.6946 60.6176 37.5764L55.9695 20.8814C59.1726 19.2109 62.8204 17.7819 66.9128 16.6045C71.0051 15.4271 75.1278 14.8434 79.2707 14.8434C86.5157 14.8434 92.0732 16.3629 95.9534 19.392C99.8335 22.4211 101.774 26.708 101.774 32.2429C101.774 35.6946 100.955 38.5324 99.3384 40.7464C97.7115 42.9704 95.6401 44.6509 93.1241 45.7982C94.7509 46.2208 96.3171 47.0661 97.8126 48.3442L97.8227 48.3542Z" fill="#010101"/>
<path d="M2.36447 84.0289V49.23H9.92271V35.8961H0V7.3263L27.242 1.09711H52.7359V49.23H59.3443V84.0289H2.36447Z" fill="white"/>
<path d="M74.6123 85.1258C69.9743 85.1258 65.2958 84.6025 60.6881 83.556C56.2522 82.5597 52.1902 81.2917 48.6132 79.7923L41.8633 76.9645V36.2382L46.5821 38.2811L39.1047 11.3919L46.9762 7.27601C50.8261 5.26335 55.2013 3.55258 59.9808 2.17391C65.0432 0.714725 70.237 -0.0198975 75.3903 -0.0198975C85.121 -0.0198975 93.0228 2.29467 98.8734 6.86341C105.451 11.9957 108.917 19.4224 108.917 28.3587C108.917 33.2494 107.826 37.5867 105.684 41.3001C106.341 42.2762 106.937 43.2926 107.482 44.3694C109.22 47.8312 110.1 51.6452 110.1 55.7108C110.1 64.8181 106.523 72.4561 99.7626 77.8199C93.6594 82.6503 85.2019 85.1057 74.6022 85.1057L74.6123 85.1258Z" fill="white"/>
<path d="M13.3784 73.0599V60.199H20.9366V24.927H11.0139V16.0713L28.4848 12.0762H41.7117V60.209H48.3201V73.07H13.3784V73.0599Z" fill="#86C440"/>
<path d="M93.9423 44.4902C95.4378 45.7682 96.6706 47.3783 97.6406 49.3105C98.6106 51.2426 99.0957 53.3861 99.0957 55.741C99.0957 61.4871 97.0343 65.9955 92.9117 69.2661C88.789 72.5366 82.6959 74.1669 74.6122 74.1669C70.7826 74.1669 66.953 73.7342 63.1233 72.8687C59.2937 72.0033 55.8783 70.9466 52.8874 69.6988V53.0037C56.1411 54.4126 59.516 55.5699 63.0021 56.4554C66.4882 57.341 69.8126 57.7838 72.9551 57.7838C75.1579 57.7838 76.7746 57.4417 77.7952 56.7674C78.8158 56.0831 79.3311 54.9661 79.3311 53.3962C79.3311 50.3671 77.4921 48.8476 73.8241 48.8476H68.1554V35.9867H72.561C76.0269 35.9867 77.7548 34.5275 77.7548 31.5991C77.7548 28.6706 76.0269 27.3624 72.561 27.3624C70.045 27.3624 67.4178 27.9461 64.6895 29.1235C61.9613 30.3009 59.3139 31.8305 56.7372 33.7123L52.0891 17.0173C55.2923 15.3468 58.94 13.9178 63.0324 12.7404C67.1247 11.563 71.2474 10.9793 75.3903 10.9793C82.6353 10.9793 88.1928 12.4989 92.073 15.5279C95.9531 18.557 97.8932 22.844 97.8932 28.3788C97.8932 31.8305 97.0748 34.6684 95.458 36.8823C93.8312 39.1063 91.7597 40.7869 89.2437 41.9341C90.8705 42.3567 92.4367 43.2021 93.9322 44.4801L93.9423 44.4902Z" fill="#86C440"/>
</g>
<defs>
<clipPath id="clip0_6_322">
<rect width="114" height="89" fill="white"/>
</clipPath>
</defs>
</svg>
