<svg width="74" height="101" viewBox="0 0 74 101" fill="none" xmlns="http://www.w3.org/2000/svg">
<g clip-path="url(#clip0_6_302)">
<path d="M15.89 96.53C11.06 94.74 6.38005 92.38 1.98005 89.52C-2.31995 86.72 -6.08995 83.81 -9.22995 80.86L-13.7 76.67L0.130048 39.29L5.97005 44.91L9.13005 7.55999L16.5201 6.59999C21.3101 5.97999 26.57 5.86999 32.1301 6.27999C37.9401 6.70999 43.59 7.92999 48.93 9.90999C58.8201 13.57 65.9201 18.82 70.05 25.52C74.5601 32.86 75.23 41.35 71.99 50.1C69.91 55.71 66.68 60.02 62.39 62.9C63.02 64.78 63.45 66.76 63.68 68.83C64.11 72.78 63.59 76.78 62.14 80.72C58.83 89.67 52.58 95.88 44.07 98.68C36.2001 101.27 26.73 100.54 15.9 96.54L15.89 96.53ZM10.2901 49.06C11.5601 50.28 12.88 51.45 14.25 52.58L16.91 45.39L8.87005 47.7L10.2901 49.07V49.06Z" fill="#003B54"/>
<path d="M53.96 65.3599C55.08 67.3799 55.77 69.6499 56.05 72.1699C56.33 74.6999 55.99 77.2499 55.03 79.8399C52.69 86.1799 48.59 90.2999 42.74 92.2299C36.89 94.1499 29.53 93.4799 20.66 90.1899C16.46 88.6299 12.43 86.5999 8.58002 84.0999C4.73002 81.5899 1.42002 79.0399 -1.34998 76.4499L5.46002 58.0499C8.45002 60.9299 11.68 63.5599 15.15 65.9599C18.62 68.3599 22.08 70.1899 25.53 71.4699C27.95 72.3599 29.86 72.6499 31.26 72.3099C32.66 71.9799 33.68 70.9499 34.32 69.2199C35.56 65.8799 34.16 63.4699 30.13 61.9699L23.91 59.6699L29.15 45.5099L33.99 47.2999C37.79 48.7099 40.29 47.7999 41.48 44.5699C42.63 41.4599 41.31 39.1999 37.51 37.7999C34.75 36.7799 31.63 36.3599 28.15 36.5499C24.68 36.7399 21.14 37.3499 17.56 38.3699L19.27 18.0899C23.46 17.5499 28.05 17.4599 33.02 17.8299C37.99 18.1999 42.75 19.2199 47.3 20.9099C55.25 23.8499 60.73 27.7799 63.76 32.6999C66.78 37.6199 67.17 43.1299 64.91 49.2299C63.5 53.0299 61.45 55.8199 58.76 57.6099C56.07 59.3999 53.11 60.4099 49.88 60.6599C51.49 61.7799 52.86 63.3499 53.98 65.3699L53.96 65.3599Z" fill="#010101"/>
<path d="M13.6 90.49C8.77001 88.7 4.09001 86.34 -0.309991 83.48C-4.60999 80.68 -8.37999 77.77 -11.52 74.82L-15.99 70.63L-2.15999 33.25L3.68001 38.87L6.83001 1.52002L14.22 0.560016C19.01 -0.0599836 24.27 -0.169984 29.83 0.240016C35.64 0.670016 41.29 1.89002 46.63 3.87002C56.52 7.53002 63.62 12.78 67.75 19.48C72.26 26.82 72.93 35.31 69.69 44.06C67.61 49.67 64.38 53.98 60.09 56.86C60.72 58.74 61.15 60.72 61.38 62.79C61.81 66.74 61.29 70.74 59.84 74.68C56.53 83.63 50.28 89.84 41.77 92.64C33.9 95.23 24.43 94.5 13.6 90.5V90.49ZM8.00001 43.02C9.27001 44.24 10.59 45.41 11.96 46.54L14.62 39.35L6.58001 41.66L8.00001 43.03V43.02Z" fill="white"/>
<path d="M50.1101 56.98C51.23 59 51.92 61.27 52.2 63.79C52.48 66.32 52.14 68.87 51.18 71.46C48.84 77.8 44.74 81.92 38.89 83.85C33.0401 85.77 25.68 85.1 16.8101 81.81C12.6101 80.25 8.58005 78.22 4.73005 75.72C0.880048 73.21 -2.42995 70.66 -5.19995 68.07L1.61005 49.67C4.60005 52.55 7.83005 55.18 11.3 57.58C14.77 59.98 18.23 61.81 21.68 63.09C24.1 63.98 26.01 64.27 27.41 63.93C28.8101 63.6 29.8301 62.57 30.4701 60.84C31.7101 57.5 30.31 55.09 26.28 53.59L20.0601 51.29L25.3 37.13L30.14 38.92C33.94 40.33 36.4401 39.42 37.6301 36.19C38.7801 33.08 37.46 30.82 33.66 29.42C30.9001 28.4 27.78 27.98 24.3 28.17C20.83 28.36 17.29 28.97 13.71 29.99L15.42 9.71C19.61 9.17 24.2 9.08 29.17 9.45C34.14 9.82 38.9001 10.84 43.4501 12.53C51.4001 15.47 56.8801 19.4 59.91 24.32C62.93 29.24 63.32 34.75 61.06 40.85C59.65 44.65 57.6001 47.44 54.9101 49.23C52.2201 51.02 49.26 52.03 46.03 52.28C47.64 53.4 49.01 54.97 50.13 56.99L50.1101 56.98Z" fill="#27AAE1"/>
</g>
<defs>
<clipPath id="clip0_6_302">
<rect width="90.01" height="100.19" fill="white" transform="translate(-16)"/>
</clipPath>
</defs>
</svg>
