<svg width="84" height="126" viewBox="0 0 84 126" fill="none" xmlns="http://www.w3.org/2000/svg">
<g clip-path="url(#clip0_6_246)">
<path d="M3.23999 98.86L8.52999 82.55C10.85 75.39 14.06 69.26 18.07 64.33C22.15 59.31 27.53 55.07 34.06 51.7C39.37 48.96 46.03 46.51 53.89 44.39C53.05 44.39 52.18 44.43 51.26 44.49C47.15 44.78 43.24 45.56 39.63 46.83L29.68 50.31L31.51 8.20001L37.32 7.32001C43.26 6.42001 49.88 6.15001 56.98 6.50001C64.25 6.86001 71.37 8.15001 78.14 10.35C89.86 14.15 98.37 19.98 103.42 27.67C108.8 35.87 109.81 45.29 106.44 55.68C104.61 61.31 101.67 65.97 97.68 69.53C94.02 72.81 89.99 75.33 85.71 77.02C82.97 78.11 79.68 79.23 75.89 80.38L97.16 87.28L84.81 125.34L3.23999 98.86Z" fill="#003B54"/>
<path d="M15.32 84.75C17.38 78.4 20.14 73.09 23.61 68.83C27.08 64.57 31.65 60.97 37.33 58.04C43.01 55.11 50.38 52.54 59.42 50.33C62.09 49.65 64.05 48.95 65.3 48.26C66.55 47.56 67.4 46.51 67.85 45.11C68.83 42.08 67.14 39.86 62.79 38.45C59.54 37.4 55.54 37.04 50.78 37.37C46.02 37.7 41.52 38.61 37.29 40.09L38.41 14.38C43.9 13.55 49.98 13.3 56.65 13.63C63.32 13.96 69.75 15.13 75.96 17.14C86.15 20.45 93.32 25.26 97.47 31.59C101.62 37.92 102.35 45.21 99.67 53.48C98.23 57.91 95.99 61.49 92.94 64.21C89.89 66.94 86.61 68.99 83.1 70.38C79.59 71.77 75.14 73.22 69.75 74.74C63.75 76.39 59.21 77.99 56.13 79.56C53.05 81.13 51.02 83.43 50.04 86.46L63.44 90.81L65.49 84.5L88.2 91.87L80.26 116.35L12.23 94.27L15.32 84.74V84.75Z" fill="#010101"/>
<path d="M0 92.52L5.29 76.21C7.61 69.05 10.82 62.92 14.83 57.99C18.91 52.97 24.29 48.73 30.82 45.36C36.13 42.62 42.79 40.17 50.65 38.05C49.81 38.05 48.94 38.09 48.02 38.15C43.91 38.44 40 39.22 36.39 40.49L26.44 43.97L28.28 1.84998L34.09 0.969976C40.04 0.0699756 46.65 -0.200024 53.75 0.149976C61.02 0.509976 68.14 1.79998 74.91 3.99998C86.63 7.79998 95.14 13.63 100.19 21.32C105.57 29.52 106.58 38.94 103.21 49.33C101.38 54.96 98.44 59.62 94.45 63.18C90.79 66.46 86.76 68.98 82.48 70.67C79.74 71.76 76.45 72.88 72.66 74.03L93.93 80.93L81.58 118.99L0 92.52Z" fill="white"/>
<path d="M12.08 78.4C14.14 72.05 16.9 66.74 20.37 62.48C23.84 58.22 28.41 54.62 34.09 51.69C39.77 48.76 47.14 46.19 56.18 43.98C58.85 43.3 60.81 42.6 62.06 41.91C63.31 41.21 64.16 40.16 64.61 38.76C65.59 35.73 63.9 33.51 59.55 32.1C56.3 31.05 52.3 30.69 47.54 31.02C42.78 31.35 38.28 32.26 34.05 33.74L35.17 8.02998C40.66 7.19998 46.74 6.94998 53.41 7.27998C60.08 7.60998 66.51 8.77998 72.72 10.79C82.91 14.1 90.08 18.91 94.23 25.24C98.38 31.57 99.11 38.86 96.43 47.13C94.99 51.56 92.75 55.14 89.7 57.86C86.65 60.59 83.37 62.64 79.86 64.03C76.35 65.42 71.9 66.87 66.51 68.39C60.51 70.04 55.97 71.64 52.89 73.21C49.81 74.78 47.78 77.08 46.8 80.11L60.2 84.46L62.25 78.15L84.96 85.52L77.02 110L8.98999 87.93L12.08 78.4Z" fill="#D93B60"/>
</g>
<defs>
<clipPath id="clip0_6_246">
<rect width="108.39" height="125.33" fill="white"/>
</clipPath>
</defs>
</svg>
