<svg width="94" height="80" viewBox="0 0 94 80" fill="none" xmlns="http://www.w3.org/2000/svg">
<g clip-path="url(#clip0_6_366)">
<path d="M45.61 90.22L38.43 69.15L17.36 76.34L5.85999 42.63L26.93 35.45L19.74 14.38L53.44 2.88L60.63 23.94L81.57 16.8L93.07 50.51L72.13 57.65L79.32 78.71L45.61 90.22Z" fill="#003B54"/>
<path d="M49.69 81.9101L42.5 60.8501L21.44 68.0401L14.17 46.7201L35.23 39.5301L28.04 18.4601L49.36 11.1901L56.55 32.2601L77.49 25.1201L84.76 46.4401L63.82 53.5801L71.01 74.6401L49.69 81.9101Z" fill="#669A31"/>
<path d="M39.75 87.34L32.57 66.27L11.5 73.46L0 39.75L21.06 32.57L13.88 11.5L47.58 0L54.77 21.07L75.71 13.92L87.21 47.63L66.27 54.77L73.46 75.84L39.75 87.34Z" fill="white"/>
<path d="M43.8301 79.0301L36.6401 57.9701L15.5801 65.1601L8.31006 43.8401L29.3701 36.6501L22.1801 15.5801L43.5001 8.31006L50.6901 29.3801L71.6301 22.2401L78.9001 43.5601L57.9601 50.7001L65.1501 71.7601L43.8301 79.0301Z" fill="#FBB042"/>
</g>
<defs>
<clipPath id="clip0_6_366">
<rect width="93.07" height="90.22" fill="white"/>
</clipPath>
</defs>
</svg>
